<?xml version="1.0" encoding="UTF-8" standalone="no"?>
<!-- Created with Inkscape (http://www.inkscape.org/) -->

<svg
   xmlns:dc="http://purl.org/dc/elements/1.1/"
   xmlns:cc="http://creativecommons.org/ns#"
   xmlns:rdf="http://www.w3.org/1999/02/22-rdf-syntax-ns#"
   xmlns:svg="http://www.w3.org/2000/svg"
   xmlns="http://www.w3.org/2000/svg"
   xmlns:sodipodi="http://sodipodi.sourceforge.net/DTD/sodipodi-0.dtd"
   xmlns:inkscape="http://www.inkscape.org/namespaces/inkscape"
   width="145.90889mm"
   height="145.90889mm"
   viewBox="0 0 517 517"
   id="svg2"
   version="1.1"
   inkscape:version="0.91 r13725"
   sodipodi:docname="favicon.svg"
   inkscape:export-filename="/home/grisu/Projects/MyWebsite/favicon.png"
   inkscape:export-xdpi="90"
   inkscape:export-ydpi="90">
  <defs
     id="defs4" />
  <sodipodi:namedview
     id="base"
     pagecolor="#ffffff"
     bordercolor="#666666"
     borderopacity="1.0"
     inkscape:pageopacity="0.0"
     inkscape:pageshadow="2"
     inkscape:zoom="0.70710678"
     inkscape:cx="-328.43385"
     inkscape:cy="251.68161"
     inkscape:document-units="px"
     inkscape:current-layer="layer1"
     showgrid="false"
     fit-margin-top="0"
     fit-margin-left="0"
     fit-margin-right="0"
     fit-margin-bottom="0"
     inkscape:window-width="1920"
     inkscape:window-height="1005"
     inkscape:window-x="0"
     inkscape:window-y="47"
     inkscape:window-maximized="1" />
  <metadata
     id="metadata7">
    <rdf:RDF>
      <cc:Work
         rdf:about="">
        <dc:format>image/svg+xml</dc:format>
        <dc:type
           rdf:resource="http://purl.org/dc/dcmitype/StillImage" />
        <dc:title />
      </cc:Work>
    </rdf:RDF>
  </metadata>
  <g
     inkscape:label="Layer 1"
     inkscape:groupmode="layer"
     id="layer1"
     transform="translate(-113.5,-281.875)">
    <rect
       style="opacity:1;fill:#ffffff;fill-opacity:1;stroke:#000000;stroke-width:3;stroke-linecap:round;stroke-linejoin:round;stroke-miterlimit:4;stroke-dasharray:none;stroke-opacity:1"
       id="rect7038"
       width="512"
       height="512"
       x="116"
       y="284.375" />
    <path
       sodipodi:type="star"
       style="opacity:1;fill:#ffeb3b;fill-opacity:1;stroke:#000000;stroke-width:4.21186352;stroke-linecap:round;stroke-linejoin:round;stroke-miterlimit:4;stroke-dasharray:none;stroke-opacity:1"
       id="path7040"
       sodipodi:sides="5"
       sodipodi:cx="384.75192"
       sodipodi:cy="533.96393"
       sodipodi:r1="198.47922"
       sodipodi:r2="99.239609"
       sodipodi:arg1="0.52359878"
       sodipodi:arg2="1.1519173"
       inkscape:flatsided="false"
       inkscape:rounded="0"
       inkscape:randomized="0"
       d="M 556.63997,633.20354 425.11631,624.62382 343.48577,728.1059 311.00252,600.36819 187.35999,554.71065 298.8079,484.34412 304.02315,352.64414 405.385,436.89294 532.25073,401.15541 483.44789,523.59056 Z"
       inkscape:transform-center-x="15.138392"
       inkscape:transform-center-y="7.6106418"
       transform="matrix(1.1871435,0,0,1.1871024,-71.971952,-99.921675)" />
    <g
       id="g7047"
       transform="matrix(-2.2757083,0,0,2.2757083,1075.5055,-620.9569)">
      <g
         transform="matrix(0.58383627,-0.81187142,0.81187142,0.58383627,-297.77371,454.16425)"
         id="text7036"
         style="font-style:normal;font-variant:normal;font-weight:normal;font-stretch:normal;font-size:100px;line-height:125%;font-family:'Clear Sans';-inkscape-font-specification:'Clear Sans';text-align:start;letter-spacing:0px;word-spacing:0px;writing-mode:lr-tb;text-anchor:start;fill:#000000;fill-opacity:1;stroke:none;stroke-width:1px;stroke-linecap:butt;stroke-linejoin:miter;stroke-opacity:1">
        <path
           sodipodi:nodetypes="csscscsscccscscscc"
           inkscape:connector-curvature="0"
           id="path7041"
           d="m 314.72092,546.86638 c -2.21355,1.75782 -4.80144,3.59753 -7.76368,4.50899 -2.96223,0.91145 -6.4453,1.36718 -10.44921,1.36718 -10.1237,0 -15.5741,-4.93372 -20.3918,-10.76054 -4.78516,-5.85937 -9.19805,-12.66068 -9.19805,-24.44453 0,-11.75131 2.3763,-20.55665 7.12891,-26.41602 4.78515,-5.85937 12.14192,-8.78906 22.07031,-8.78906 3.9388,0 7.45443,0.48828 10.54688,1.46484 3.09245,0.97656 5.69661,2.32747 7.8125,4.05274 0,0 2.1105,7.14561 -5.90821,6.59179 -1.46484,-1.26953 -3.22265,-2.26236 -5.27343,-2.97851 -2.05079,-0.7487 -4.44337,-1.12305 -7.17774,-1.12305 -6.77083,0 -11.7513,2.26237 -14.94141,6.78711 -3.15755,4.49219 -4.73632,11.29557 -4.73632,20.41016 0,8.98437 3.58281,13.75117 6.70781,18.34101 2.86732,4.37115 4.8157,7.90392 13.06758,8.85625 3.81582,0.44037 7.17773,-0.7487 10.00976,-2.24609 8.54707,-5.51364 8.4961,4.37773 8.4961,4.37773 z" />
      </g>
      <circle
         r="8.8388348"
         cy="469.75671"
         cx="311.12698"
         id="path7043"
         style="opacity:1;fill:#000000;fill-opacity:1;stroke:none;stroke-width:1;stroke-linecap:round;stroke-linejoin:round;stroke-miterlimit:4;stroke-dasharray:none;stroke-opacity:1" />
      <circle
         style="opacity:1;fill:#000000;fill-opacity:1;stroke:none;stroke-width:1;stroke-linecap:round;stroke-linejoin:round;stroke-miterlimit:4;stroke-dasharray:none;stroke-opacity:1"
         id="circle7045"
         cx="334.61301"
         cy="492.2326"
         r="8.8388348" />
    </g>
  </g>
</svg>
